<svg width="534" height="456" viewBox="0 0 534 456" fill="none" xmlns="http://www.w3.org/2000/svg">
<g filter="url(#filter0_d)">
<path d="M166.429 59.4828C168.607 55.127 170.85 50.8463 173.637 46.8199C174.683 45.309 176.233 44.6138 177.534 43.3132C178.05 42.7968 179.311 42.467 179.59 41.8629C180.051 40.8653 180.753 40.1532 181.322 39.2221C182.189 37.803 184.225 36.2794 185.435 35.0228C186.788 33.6175 188.132 31.974 189.742 30.8668C191.066 29.9565 192.482 29.0738 193.92 28.3125C194.492 28.0095 195.209 27.461 195.63 26.9705C196.107 26.4135 197.767 26.1676 198.509 25.6284C201.427 23.5064 204.391 21.6713 207.254 19.5243C210.428 17.1436 214.911 16.5353 218.445 14.6755C223.167 12.1899 228.877 10 234.225 10" stroke="#F0F0F0" stroke-width="20" stroke-linecap="round" stroke-linejoin="round"/>
<path d="M234.614 10.3896C233.725 13.0047 233.051 15.0683 232.58 17.6627C232.217 19.6553 232.277 21.614 232.277 23.637C232.277 26.754 232.277 29.8711 232.277 32.9881C232.277 34.5893 233 35.8977 233.056 37.5771C233.133 39.8876 233.184 41.0366 234.225 43.1184C234.839 44.3467 234.539 45.79 235.091 47.0147C235.595 48.1356 236.173 48.8041 236.173 50.1317" stroke="#F0F0F0" stroke-width="20" stroke-linecap="round" stroke-linejoin="round"/>
<path d="M167.209 59.4828C167.209 62.0515 167.209 64.6202 167.209 67.1888C167.209 70.3445 167.704 72.1269 168.962 74.8948C169.501 76.0816 170.026 76.9554 170.715 78.0984C171.278 79.0315 172.103 81.0246 173.053 81.6051C173.807 82.0659 173.987 82.9154 174.785 83.4233C175.475 83.8627 176.596 83.6398 177.382 83.6398C179.965 83.6398 182.548 83.6398 185.132 83.6398C187.245 83.6398 189.94 82.065 191.669 80.9124C195.147 78.5937 198.246 74.8163 201.279 71.951C201.84 71.4213 203.244 70.9998 203.422 70.1976C203.654 69.155 204.461 69.4057 204.916 68.6608C205.889 67.0688 206.99 65.331 208.358 64.1151C210.145 62.5261 211.445 60.3494 212.882 58.4871C213.91 57.1542 216.401 56.6039 217.081 55.4134C217.457 54.7546 219.992 54.6618 220.783 54.2229C222.209 53.4302 224.143 52.8068 225.263 51.8634C226.311 50.9814 229.948 51.6903 231.302 51.6903C232.926 51.6903 234.549 51.6903 236.173 51.6903" stroke="#F0F0F0" stroke-width="20" stroke-linecap="round" stroke-linejoin="round"/>
<path d="M236.173 50.1318C236.043 50.7812 235.913 51.4305 235.783 52.0799" stroke="#F0F0F0" stroke-width="20" stroke-linecap="round" stroke-linejoin="round"/>
<path d="M166.429 61.0413C159.243 62.1911 152.114 62.9895 144.827 62.9895C143.161 62.9895 141.884 63.7207 140.108 63.7687C138.804 63.8039 134.772 63.7601 133.895 64.5696C132.511 65.8474 129.883 65.8316 128.116 66.1931C125.742 66.6786 123.718 68.2172 121.406 68.8339C120.209 69.153 119.499 69.8078 118.635 70.6522C117.59 71.6729 116.603 71.7913 115.475 72.557C113.807 73.6885 112.47 75.2926 110.713 76.3667C107.433 78.3706 103.851 80.7552 100.95 83.2934C98.7684 85.2025 95.498 86.582 93.6554 88.7049C89.231 93.8026 84.7341 99.2156 80.9709 104.81C76.8223 110.976 73.6669 117.971 69.0439 123.75C67.4647 125.724 65.3705 126.862 63.8272 128.967C62.4977 130.779 60.6911 132.667 60.1474 134.941C59.4364 137.914 58.0815 140.716 56.749 143.469C55.653 145.734 54.3533 149.291 54.2164 151.825C54.0511 154.882 51.1577 157.157 50.7097 160.18C50.2443 163.322 48.3353 166.055 47.2031 169.012C45.9998 172.153 46.6053 175.622 46.0125 178.882C45.7249 180.464 46.0978 182.679 45.558 184.164C44.2974 187.63 45.9768 189.735 47.5927 192.563C48.1953 193.617 49.6562 194.348 50.2984 195.312C51.2471 196.735 53.8728 198.907 55.4718 199.576C56.9737 200.205 58.4217 200.746 59.866 201.524C61.4824 202.394 63.2482 202.816 64.8229 203.732C65.8206 204.312 66.3546 204.31 67.4421 204.446C68.2931 204.553 68.8061 205.394 69.6067 205.572C70.7377 205.823 71.218 206.302 72.1393 206.762" stroke="#F0F0F0" stroke-width="20" stroke-linecap="round" stroke-linejoin="round"/>
<path d="M72.5289 206.762C78.0305 206.762 83.9414 206.847 89.4345 207.347C93.7835 207.742 98.0316 208.814 102.4 209.078C104.907 209.23 107.463 209.1 109.977 209.1C116.493 209.1 123.088 208.824 129.588 209.295C132.644 209.516 135.441 210.284 138.419 210.615C140.506 210.847 142.663 210.664 144.697 211.308C146.374 211.839 147.467 212.217 149.242 212.217C161.436 212.217 173.63 212.217 185.824 212.217C191.622 212.217 197.078 214.36 202.838 214.555C213.338 214.911 223.83 214.945 234.355 214.945C242.999 214.945 251.557 214.414 260.113 213.191C266.574 212.268 273.607 212.996 280.158 212.996C284.547 212.996 288.845 212.217 293.253 212.217C300.505 212.217 307.756 212.217 315.008 212.217C320.528 212.217 325.789 210.659 331.242 210.659C335.181 210.659 338.903 210.05 342.801 209.576C346.635 209.11 350.678 209.551 354.447 208.797C357.939 208.099 361.089 205.634 363.581 203.256C364.86 202.035 366.261 200.643 367.694 199.662C369.07 198.721 369.472 196.196 370.595 195.074" stroke="#F0F0F0" stroke-width="20" stroke-linecap="round" stroke-linejoin="round"/>
<path d="M376.05 174.423C373.474 176.999 371.764 179.469 371.764 183.082C371.764 184.913 370.984 186.789 370.984 188.666C370.984 192.735 370.554 197.342 371.461 201.308C373.41 209.837 379.099 215.304 385.227 221.005C388.83 224.356 393.88 225.917 397.696 228.885C398.596 229.585 399.098 230.919 400.401 230.919C401.087 230.919 401.994 231.332 402.544 231.699" stroke="#F0F0F0" stroke-width="20" stroke-linecap="round" stroke-linejoin="round"/>
<path d="M236.173 52.0799C240.523 52.0074 245.088 50.508 249.204 49.136C252.843 47.923 256.789 49.1904 260.525 48.3784C263.759 47.6753 267.559 48.1836 270.85 48.1836C272.591 48.1836 274.164 47.4044 276.002 47.4044C277.668 47.4044 279.335 47.4044 281.002 47.4044C289.96 47.4044 298.828 47.794 307.8 47.794C314.034 47.794 320.268 47.794 326.502 47.794C328.05 47.794 329.81 47.5072 331.242 48.1836C333.483 49.2416 336.194 49.8136 338.234 51.1058C340.91 52.8006 343.157 54.8032 346.026 56.3225C348.779 57.7796 351.802 58.9489 354.403 60.6517C360.08 64.3671 365.875 67.8216 371.504 71.6912C373.825 73.2869 376.41 74.5202 378.777 76.042C380.335 77.0436 381.514 79.5773 383.452 79.7435C384.299 79.8161 386.662 81.067 387.5 81.5185C389.258 82.4648 390.161 84.1855 391.721 85.1983C394.231 86.8277 396.374 88.9713 398.864 90.6315C401.772 92.5699 405.06 94.6454 407.609 97.0603C410.47 99.7704 413.817 101.889 416.679 104.636C417.682 105.6 418.121 106.952 418.974 108.035C420.032 109.378 421.272 110.593 422.502 111.78C428.861 117.919 435.521 123.513 440.771 130.742C443.21 134.099 446.027 137.151 448.347 140.526C449.358 141.996 450.818 143.871 451.248 145.591" stroke="#F0F0F0" stroke-width="20" stroke-linecap="round" stroke-linejoin="round"/>
<path d="M253.317 49.3525C253.317 44.168 255.462 40.1143 259.031 36.4082C261.648 33.6904 264.501 29.4696 268.425 28.3991C273.272 27.0773 276.525 23.778 280.807 21.4724C285.724 18.8245 290.698 17.741 296.176 16.6454C298.528 16.175 301.021 15.6082 303.384 15.4332C305.066 15.3086 308.08 15.5891 309.639 15.0219C311.975 14.1725 314.658 13.8963 317.216 13.8963C321.208 13.8963 325.18 13.5067 329.207 13.5067C329.943 13.5067 330.679 13.5067 331.415 13.5067C332.19 13.5067 332.593 12.7691 333.364 12.7274C335.369 12.619 337.415 12.7274 339.424 12.7274C342.541 12.7274 345.658 12.7274 348.775 12.7274C349.738 12.7274 351.388 12.4347 352.261 12.9439C353.08 13.4221 353.756 14.2859 354.815 14.2859C356.51 14.2859 359.567 16.9405 357.153 18.5502C355.298 19.7864 353.429 22.0117 352.369 24.0266C349.955 28.6119 348.495 33.9105 346.394 38.6377C346.123 39.2482 345.408 39.2686 345.269 40.0014C345.103 40.8713 344.365 41.6461 343.905 42.3825C343.394 43.2001 342.541 45.408 342.541 46.4303C342.541 48.9174 340.593 51.0924 340.593 53.2488" stroke="#F0F0F0" stroke-width="20" stroke-linecap="round" stroke-linejoin="round"/>
<path d="M353.061 60.6517C356.773 60.0657 360.194 58.8737 363.755 57.9243C365.079 57.571 366.621 57.3676 367.846 56.7555C369.759 55.7987 372.007 56.817 373.971 55.803C376.835 54.3251 380.424 53.8875 383.539 52.9458C387.387 51.7824 391.297 50.243 395.206 49.3742C400.727 48.1474 406.103 48.1836 411.722 48.1836C420.422 48.1836 430.235 46.2513 438.693 48.8763C441.931 49.8811 445.316 51.3903 448.694 51.7119C449.925 51.8293 450.559 53.2488 451.854 53.2488C453.463 53.2488 455.456 54.5741 457.006 55.1104C458.052 55.4727 459.167 56.3045 460.209 56.3658C461.551 56.4448 458.124 58.8278 457.85 59.1365C455.806 61.436 453.978 64.2346 451.248 65.7169C447.457 67.7746 444.059 70.2719 440.187 72.1241C438.962 72.71 438.112 74.0521 436.875 74.8082C435.852 75.4333 434.985 75.3071 434.104 76.2369C432.711 77.7075 430.97 78.8164 429.515 80.2197C428.298 81.3936 426.745 82.7231 425.337 83.6615C423.266 85.0426 420.076 88.0513 418.909 90.2635C417.674 92.603 416.479 94.9603 415.164 97.2985C414.403 98.6505 413.843 98.9813 413.843 100.589C413.843 101.853 412.91 101.942 412.675 103.121" stroke="#F0F0F0" stroke-width="20" stroke-linecap="round" stroke-linejoin="round"/>
<path d="M423.195 113.252C427.479 112.598 431.84 110.694 435.814 108.966C437.65 108.168 439.398 107.208 441.312 106.628C443.518 105.96 445.979 105.992 448.044 104.896C452.802 102.373 458.801 101.563 464.17 101.563C469.473 101.563 474.824 101.366 480.124 101.563C481.869 101.627 483.289 102.309 484.951 102.688C486.563 103.057 488.248 102.957 489.864 103.294C493.386 104.03 496.571 105.89 500.189 106.282C502.317 106.512 504.584 107.498 506.597 108.208C508.669 108.94 511.128 109.008 513.026 110.135C514.638 111.092 510.422 112.246 509.865 112.386C508.824 112.646 507.995 113.346 506.986 113.598C504.964 114.103 502.453 114.65 500.557 115.503C497.965 116.669 495.592 117.826 493.739 120.027C492.495 121.504 490.606 122.447 489.258 123.923C488.574 124.672 487.55 125.895 486.704 126.412C484.889 127.522 483.553 129.833 481.444 130.395C480.219 130.722 476.79 132.963 476.184 134.075C475.048 136.157 472.36 136.639 471.076 138.383C470.039 139.79 468.606 140.974 467.439 142.279C466.501 143.327 465.734 144.866 464.409 145.504C463.465 145.959 462.454 147.097 461.681 147.842C460.853 148.639 460.691 149.555 459.82 150.115C458.349 151.06 457.006 152.012 455.534 152.994" stroke="#F0F0F0" stroke-width="20" stroke-linecap="round" stroke-linejoin="round"/>
<path d="M450.469 144.811C450.886 146.953 451.864 150.497 453.975 151.738C455.259 152.493 457.482 155.964 457.482 157.323C457.482 158.101 457.792 158.622 457.871 159.314C457.975 160.213 458.896 160.461 459.019 161.198C459.265 162.677 460.436 164.467 461.227 165.873C462.142 167.5 462.461 169.137 463.153 170.917C463.81 172.605 465.106 173.939 465.751 175.679C467.227 179.666 469.026 183.553 471.422 187.108C475.611 193.323 476.88 200.45 480.275 206.979C482.48 211.219 484.662 215.258 486.834 219.404C488.274 222.152 489.431 226.237 489.431 229.361" stroke="#F0F0F0" stroke-width="20" stroke-linecap="round" stroke-linejoin="round"/>
<path d="M490.211 229.361C489.081 235.431 489.821 242.145 489.821 248.279C489.821 251.586 490.375 255.53 489.648 258.756C488.728 262.839 489.628 267.351 488.262 271.311C487.318 274.048 487.979 277.342 487.462 280.186C487.165 281.819 486.314 283.602 486.314 285.272C486.314 287.495 485.246 289.915 484.366 291.939C483.777 293.295 483.77 294.345 483.024 295.663C482.545 296.509 482.536 297.41 482.18 298.282C481.732 299.377 480.838 300.301 480.34 301.399C478.358 305.773 476.3 310.172 474.149 314.473C473.094 316.584 471.952 318.67 470.686 320.664C469.522 322.496 467.842 324.077 466.833 325.989C465.555 328.41 464.391 330.909 462.937 333.218C460.422 337.212 457.355 340.695 454.538 344.474C451.943 347.956 448.915 351.021 446.204 354.41C444.808 356.156 443.135 357.72 441.962 359.627C441 361.189 440.064 362.844 438.758 364.151C435.655 367.254 431.793 369.989 428.26 372.571C426.601 373.783 425.248 375.377 423.584 376.597C423.065 376.978 419.896 378.407 420.467 378.978" stroke="#F0F0F0" stroke-width="20" stroke-linecap="round" stroke-linejoin="round"/>
<path d="M420.077 378.978C413.469 392.195 400.947 398.859 389.167 406.945C383.029 411.158 376.394 414.239 370.01 417.984C363.208 421.975 356.105 425.123 348.559 427.465C335.332 431.57 321.151 434.139 307.215 434.305C287.051 434.545 266.923 435.474 246.736 435.474C234.629 435.474 222.521 435.474 210.414 435.474C193.561 435.474 176.423 434.556 159.633 435.777C154.452 436.154 149.119 434.943 143.918 434.717C140.6 434.572 137.422 433.916 134.09 433.916" stroke="#F0F0F0" stroke-width="20" stroke-linecap="round" stroke-linejoin="round"/>
<path d="M134.09 434.305C128.908 434.305 123.437 433.474 118.721 431.21C116.863 430.318 114.659 430.278 112.726 429.457C110.121 428.35 107.141 427.943 104.652 426.664C101.841 425.221 99.0425 423.983 96.1447 422.768C94.1137 421.916 92.3298 420.519 90.2353 419.694C86.7981 418.34 83.4513 416.604 80.105 415.019C78.1718 414.103 75.9444 413.697 73.9142 413.049C72.4849 412.593 71.2981 411.797 69.953 411.166C68.7457 410.599 67.255 410.429 66.2082 409.564C64.9764 408.546 63.5343 407.943 62.0522 407.248C60.5785 406.557 59.5598 405.304 58.1343 404.52C54.0831 402.292 50.356 399.399 46.229 397.269C43.645 395.935 41.8991 393.517 39.6269 391.749C37.1929 389.856 34.431 387.722 32.527 385.342C30.9979 383.431 28.8687 382.105 26.9424 380.623C25.088 379.197 24.0547 377.147 22.44 375.471C20.4841 373.442 19.3949 370.879 17.4181 368.848C15.627 367.007 15.2525 364.481 14.3877 362.094C13.2741 359.021 12.9157 355.531 12.9157 352.267C12.9157 349.696 12.5261 347.233 12.5261 344.691C12.5261 343.256 12.9375 341.217 12.1365 340.015" stroke="#F0F0F0" stroke-width="20" stroke-linecap="round" stroke-linejoin="round"/>
<path d="M12.9158 341.574C12.5382 339.518 11.7469 338.339 11.7469 336.271C11.7469 333.622 11.3573 331.131 11.3573 328.565C11.3573 325.469 11.3573 322.374 11.3573 319.278C11.3573 316.264 10.5252 311.842 11.4006 308.997C12.4866 305.467 14.4743 302.372 14.4743 298.498C14.4743 295.283 15.2782 293.018 16.3359 290.056C16.777 288.821 17.8114 287.742 18.5221 286.636C18.9501 285.97 18.8465 284.645 19.3663 284.125C21.0361 282.456 22.377 280.47 24.3016 278.93C25.3417 278.098 27.8483 276.116 29.2802 276.116" stroke="#F0F0F0" stroke-width="20" stroke-linecap="round" stroke-linejoin="round"/>
<path d="M54.606 200.918C51.9163 200.918 49.1985 200.815 46.5103 200.918C44.6549 200.989 43.1006 202.781 41.575 202.866C37.1189 203.114 33.1764 208.072 33.1764 212.39C33.1764 215.582 33.3974 217.709 34.7349 220.702C36.2592 224.114 38.7454 227.658 41.6616 229.967C46.3813 233.703 51.8138 235.697 57.6797 236.98C69.3499 239.533 81.466 240.27 93.374 240.27C115.64 240.27 137.9 240.66 160.174 240.66C183.174 240.66 206.171 240.27 229.16 240.27C253.1 240.27 277.006 239.881 300.938 239.881C307.395 239.881 313.853 239.881 320.311 239.881C326.505 239.881 332.954 240.411 339.121 239.838C340.263 239.731 341.058 238.994 342.152 238.799C343.445 238.568 344.849 238.712 346.156 238.712C347.809 238.712 349.461 238.712 351.113 238.712" stroke="#F0F0F0" stroke-width="20" stroke-linecap="round" stroke-linejoin="round"/>
<path d="M45.6446 230.919C41.7159 232.139 36.9759 234.477 33.7392 237.067C32.8767 237.757 31.6159 239.244 31.0118 240.184C30.644 240.756 30.3316 241.569 30.146 242.219C29.8343 243.31 29.062 243.488 28.5225 244.405C26.5592 247.742 24.9942 251.115 24.9942 255.076C24.9942 258.562 24.541 262.213 23.8687 265.575C23.1327 269.254 25.7612 273.136 26.8558 276.419C27.6209 278.715 29.918 279.675 31.8127 280.987C36.6025 284.303 41.436 287.967 46.9433 289.97C52.6702 292.052 58.5242 293.535 64.4333 294.992C68.2871 295.942 72.0566 297.143 75.949 297.935C79.1391 298.585 81.9989 300.054 85.1269 300.879C92.2356 302.755 99.4286 303.705 106.556 305.382C113.756 307.076 120.495 308.779 127.899 309.235C130.032 309.366 131.959 310.184 134.069 310.36C135.909 310.514 137.626 310.472 139.458 310.793C145.466 311.847 151.657 311.714 157.728 312.049C173.49 312.918 189.236 312.741 205.024 312.741C209.741 312.741 214.476 312.952 219.159 312.352C225.488 311.54 231.877 312.415 238.208 311.789C243.521 311.263 248.732 310.02 254.009 309.235C259.028 308.488 264.134 308.239 269.118 307.287C276.742 305.83 284.197 304.92 291.695 302.762C298.176 300.898 304.642 298.832 311.09 296.875C315.842 295.432 320.113 292.47 324.922 291.312C326.844 290.848 328.781 290.359 330.636 289.667C331.99 289.161 333.361 288.255 334.835 288.195C338.39 288.05 341.043 286.6 344.446 285.684C347.145 284.957 349.374 283.279 352.044 282.35C353.043 282.003 354.552 281.746 355.399 281.181" stroke="#F0F0F0" stroke-width="20" stroke-linecap="round" stroke-linejoin="round"/>
<path d="M54.606 340.015C57.9065 336.521 62.3532 332.709 67.4637 332.244C69.7438 332.037 70.8069 330.944 72.8319 330.058C74.1846 329.466 75.7231 329.299 77.0529 328.673C78.7242 327.886 80.4052 327.485 82.0964 326.768C83.7512 326.066 85.9817 325.032 87.7244 324.733C92.0263 323.996 96.0613 321.856 100.496 321.703C101.812 321.657 102.915 321.023 104.089 320.447C105.843 319.586 107.519 319.383 109.327 318.781C110.579 318.363 112.083 318.474 113.397 318.196C116.015 317.642 118.311 316.118 120.843 315.534C123.426 314.938 126.166 315.079 128.809 315.079C130.213 315.079 131.31 314.3 132.705 314.3C134.249 314.3 135.793 314.3 137.337 314.3C142.941 314.3 148.403 313.619 154.005 314.495C159.242 315.313 164.069 317.099 169.243 318.283C173.207 319.19 177.34 319.373 181.192 320.729C187.221 322.85 193.696 324.179 199.851 325.989C202.195 326.678 204.71 327.103 206.994 327.98C209.272 328.855 211.377 330.17 213.618 331.14C219.31 333.606 225.262 335.252 230.826 338.002C236.175 340.647 241.921 342.331 246.779 345.903C249.264 347.73 251.963 349.41 254.269 351.444C257.118 353.958 260.33 355.784 262.819 358.696C264.423 360.572 266.037 362.542 267.819 364.259C270.388 366.733 273.475 368.501 275.915 371.186" stroke="#F0F0F0" stroke-width="20" stroke-linecap="round" stroke-linejoin="round"/>
<path d="M107.595 120.265C109.47 119.873 111.499 119.45 113.202 118.533C113.968 118.12 114.712 117.303 115.583 117.169C117.786 116.831 119.863 116.092 122.098 115.676C123.331 115.447 124.636 115.392 125.886 115.2C127.081 115.016 128.251 114.151 129.285 114.052C132.228 113.772 135.158 113.723 138.073 113.165C142.598 112.299 147.119 112.472 151.71 112.472C153.365 112.472 155.014 113.252 156.689 113.252C157.494 113.252 159.906 113.842 160.195 114.42" stroke="#F0F0F0" stroke-width="20" stroke-linecap="round" stroke-linejoin="round"/>
<path d="M138.766 117.537C136.943 118.579 135.604 119.138 134.263 120.287C133.389 121.036 132.596 123.792 133.549 124.746C134.612 125.808 136.702 126.015 137.987 126.586C139.336 127.185 141.576 126.659 142.965 126.196C146.109 125.148 146.195 122.209 145.368 119.312C145.237 118.856 142.806 118.251 142.272 118.014C141.285 117.575 139.434 117.927 138.376 117.927" stroke="#F0F0F0" stroke-width="20" stroke-linecap="round" stroke-linejoin="round"/>
<path d="M215.912 114.81C214.119 114.469 210.967 113.694 209.462 115.2C208.948 115.713 207.703 118.122 208.726 118.706C209.316 119.044 209.559 119.784 210.068 120.265C210.726 120.886 211.653 121.158 212.405 121.629C213.521 122.326 216.152 121.823 217.471 121.823C220.893 121.823 223.132 119.917 222.168 116.542C221.786 115.205 216.961 115.2 215.523 115.2" stroke="#F0F0F0" stroke-width="20" stroke-linecap="round" stroke-linejoin="round"/>
<path d="M297.345 112.862C295.409 112.862 293.875 112.714 292.193 113.468C291.396 113.825 289.966 112.401 289.249 112.083C288.005 111.53 287.447 111.083 286.522 110.351C285.364 109.435 283.753 105.642 283.405 104.117C282.716 101.105 282.539 98.1776 282.539 95.0256C282.539 91.5973 283.864 88.4395 284.79 85.1983C285.587 82.4074 288.154 80.9552 289.768 78.6612C291.617 76.0337 294.269 74.5297 296.868 72.7302C299.123 71.1692 301.902 69.4112 304.618 68.7473C307.334 68.0833 309.828 66.3195 312.54 65.7169C315.028 65.164 317.561 64.9376 320.116 64.9376C321.531 64.9376 319.792 70.5914 319.359 71.4098C318.55 72.937 318.209 74.8158 317.454 76.41C317.141 77.0699 316.917 78.0625 316.848 78.7911C316.735 79.9699 316.11 80.2999 315.7 81.3237C314.66 83.9252 314.784 86.7881 313.752 89.4409C313.083 91.1622 312.15 94.0796 312.15 95.9131C312.15 98.1676 310.204 99.8994 309.791 101.758C309.33 103.831 306.811 106.614 305.7 108.36C305.365 108.885 304.32 109.636 303.773 109.94C303.152 110.285 301.862 110.336 301.457 110.741C300.388 111.81 298.526 113.118 296.955 113.641" stroke="#F0F0F0" stroke-width="20" stroke-linecap="round" stroke-linejoin="round"/>
<path d="M97.0756 85.1983C95.5314 83.0364 93.8454 79.0174 91.6208 77.7088C91.1632 77.4396 89.3328 74.7121 89.283 74.2887C89.1624 73.2639 87.0578 72.1241 86.6422 71.0851C86.0149 69.5168 84.9282 68.7249 84.0014 67.362C83.7941 67.0571 83.1471 66.6024 83.0706 66.258C82.8217 65.1382 82.4438 65.68 81.8801 64.8511C81.1268 63.7432 80.8617 61.6533 79.5423 60.9548C78.6565 60.4858 77.4958 59.0659 76.6417 59.8725C70.583 65.5946 72.1394 75.9704 72.1394 83.9428C72.1394 91.4345 77.3065 97.9323 81.4904 103.511" stroke="#F0F0F0" stroke-width="20" stroke-linecap="round" stroke-linejoin="round"/>
<path d="M64.3467 204.425C64.3467 200.766 64.9103 197.476 65.9918 193.991C67.0867 190.463 67.5183 186.708 68.6326 183.168C69.1324 181.581 69.9521 180.514 70.5807 179.012C70.7089 178.706 71.6682 175.848 72.0527 176.848C72.5144 178.048 72.6117 178.747 73.3081 179.791C74.1253 181.017 74.9678 182.7 75.2563 184.142C75.699 186.356 76.3857 189.103 77.5724 190.982C78.7869 192.905 78.9236 195.617 80.1483 197.541C81.1406 199.1 82.8338 200.995 83.0705 202.888C83.1758 203.73 85.3909 207.283 86.1659 207.542" stroke="#F0F0F0" stroke-width="20" stroke-linecap="round" stroke-linejoin="round"/>
<path d="M96.6859 209.879C98.3944 214.056 101.18 217.177 103.396 221.005C104.482 222.88 106.159 223.314 106.427 225.854C106.768 229.096 109.595 226.019 110.756 224.858C113.183 222.431 116.378 220.261 119.284 218.451C120.794 217.511 122.404 217.207 123.743 215.94C125.013 214.739 126.174 214.241 127.77 213.689C128.452 213.453 129.186 212.998 129.718 212.52C130.266 212.027 131.058 212.261 131.752 211.914C132.857 211.362 133.019 210.415 134.09 209.879" stroke="#F0F0F0" stroke-width="20" stroke-linecap="round" stroke-linejoin="round"/>
<path d="M254.485 213.776C255.975 215.652 257.723 217.429 259.356 219.187C260.159 220.052 261.193 220.244 261.888 221.373C263.268 223.615 265.706 224.402 267.321 226.287C268.549 227.719 268.884 229.793 270.655 227.629C271.988 226 272.489 223.911 273.599 222.153C274.878 220.127 275.679 218.592 277.473 216.893C278.209 216.196 280.356 215.004 281.37 214.945C282.789 214.861 284.058 214.555 285.569 214.555C287.67 214.555 288.379 213.711 290.331 213.386" stroke="#F0F0F0" stroke-width="20" stroke-linecap="round" stroke-linejoin="round"/>
<path d="M305.137 212.996C304.217 208.052 306.8 202.962 309.445 198.775C310.756 196.699 311 194.253 312.324 192.173C314.115 189.358 314.269 193.579 316.047 194.467C316.932 194.91 317.464 195.876 317.995 196.719C318.526 197.563 319.38 198.774 319.77 199.662C320.2 200.642 320.859 201.018 321.198 202C321.488 202.838 321.658 203.378 322.281 204.035C323.319 205.131 323.662 206.972 325.095 207.628C325.859 207.979 327.499 210.34 327.736 211.048" stroke="#F0F0F0" stroke-width="20" stroke-linecap="round" stroke-linejoin="round"/>
<path d="M190.67 115.742C191.897 114.552 193.49 113.265 195.129 112.669C196.252 112.26 197.176 111.15 198.376 111.067C201.369 110.86 204.134 109.038 207.121 108.729C209.501 108.483 211.673 108.038 214.135 107.95C216.502 107.865 218.925 107.56 221.364 107.56C226.644 107.56 232.657 106.852 237.815 108.123C240.177 108.705 242.58 109.898 245.045 109.898C246.863 109.898 249.254 110.692 250.284 112.236" stroke="#F0F0F0" stroke-width="20" stroke-linecap="round" stroke-linejoin="round"/>
<path d="M192.229 171.07C189.672 173.706 190.772 174.187 193.571 174.187C194.098 174.187 195.226 174.408 195.649 174.1C196.223 173.682 195.861 173.153 196.212 172.715C198.197 170.233 190.868 170.68 189.891 170.68" stroke="#F0F0F0" stroke-width="20" stroke-linecap="round" stroke-linejoin="round"/>
<path d="M138.338 170.421C135.781 173.058 136.881 173.538 139.68 173.538C140.207 173.538 141.335 173.759 141.758 173.451C142.332 173.034 141.97 172.504 142.321 172.066C144.306 169.585 136.977 170.031 136 170.031" stroke="#F0F0F0" stroke-width="20" stroke-linecap="round" stroke-linejoin="round"/>
</g>
<defs>
<filter id="filter0_d" x="0.997803" y="0" width="532.401" height="455.849" filterUnits="userSpaceOnUse" color-interpolation-filters="sRGB">
<feFlood flood-opacity="0" result="BackgroundImageFix"/>
<feColorMatrix in="SourceAlpha" type="matrix" values="0 0 0 0 0 0 0 0 0 0 0 0 0 0 0 0 0 0 127 0"/>
<feOffset dx="5" dy="5"/>
<feGaussianBlur stdDeviation="2.5"/>
<feColorMatrix type="matrix" values="0 0 0 0 0 0 0 0 0 0 0 0 0 0 0 0 0 0 1 0"/>
<feBlend mode="normal" in2="BackgroundImageFix" result="effect1_dropShadow"/>
<feBlend mode="normal" in="SourceGraphic" in2="effect1_dropShadow" result="shape"/>
</filter>
</defs>
</svg>
