<svg width="80" height="80" viewBox="0 0 80 80" fill="none" xmlns="http://www.w3.org/2000/svg">
<g filter="url(#filter0_d)">
<circle cx="38" cy="39" r="33.5" stroke="#500A0A" stroke-width="3"/>
</g>
<g filter="url(#filter1_d)">
<path d="M29.0876 19.6937C29.3131 19.1925 29.5452 18.6999 29.8337 18.2366C29.942 18.0628 30.1024 17.9828 30.237 17.8332C30.2905 17.7737 30.421 17.7358 30.4499 17.6663C30.4975 17.5515 30.5702 17.4695 30.6291 17.3624C30.7189 17.1991 30.9295 17.0238 31.0548 16.8792C31.1949 16.7175 31.3339 16.5284 31.5006 16.401C31.6377 16.2963 31.7842 16.1947 31.933 16.1071C31.9923 16.0722 32.0665 16.0091 32.11 15.9527C32.1595 15.8886 32.3313 15.8603 32.408 15.7983C32.71 15.5541 33.0169 15.343 33.3132 15.0959C33.6417 14.822 34.1058 14.752 34.4715 14.538C34.9603 14.252 35.5513 14 36.1048 14" stroke="#500A0A" stroke-width="2" stroke-linecap="round" stroke-linejoin="round"/>
<path d="M36.1452 14.0449C36.0531 14.3458 35.9834 14.5832 35.9346 14.8817C35.8971 15.111 35.9032 15.3364 35.9032 15.5692C35.9032 15.9278 35.9032 16.2865 35.9032 16.6451C35.9032 16.8294 35.9781 16.9799 35.9839 17.1732C35.9918 17.439 35.9971 17.5712 36.1048 17.8108C36.1684 17.9521 36.1374 18.1182 36.1945 18.2591C36.2467 18.3881 36.3065 18.465 36.3065 18.6178" stroke="#500A0A" stroke-width="2" stroke-linecap="round" stroke-linejoin="round"/>
<path d="M29.1683 19.6937C29.1683 19.9893 29.1683 20.2848 29.1683 20.5804C29.1683 20.9435 29.2196 21.1486 29.3498 21.4671C29.4056 21.6036 29.4599 21.7042 29.5313 21.8357C29.5896 21.943 29.6749 22.1724 29.7733 22.2392C29.8513 22.2922 29.8699 22.3899 29.9525 22.4484C30.024 22.4989 30.14 22.4733 30.2214 22.4733C30.4887 22.4733 30.7561 22.4733 31.0234 22.4733C31.2422 22.4733 31.5211 22.2921 31.7001 22.1595C32.0601 21.8927 32.3808 21.458 32.6948 21.1283C32.7529 21.0674 32.8982 21.0189 32.9166 20.9266C32.9406 20.8066 33.0241 20.8355 33.0712 20.7497C33.1719 20.5666 33.2859 20.3666 33.4275 20.2267C33.6125 20.0439 33.747 19.7934 33.8957 19.5791C34.0022 19.4258 34.26 19.3624 34.3304 19.2254C34.3693 19.1496 34.6317 19.139 34.7135 19.0885C34.8612 18.9972 35.0613 18.9255 35.1773 18.817C35.2857 18.7155 35.6622 18.797 35.8024 18.797C35.9704 18.797 36.1384 18.797 36.3065 18.797" stroke="#500A0A" stroke-width="2" stroke-linecap="round" stroke-linejoin="round"/>
<path d="M36.3066 18.6177C36.2931 18.6925 36.2797 18.7672 36.2662 18.8419" stroke="#500A0A" stroke-width="2" stroke-linecap="round" stroke-linejoin="round"/>
<path d="M29.0877 19.873C28.3439 20.0053 27.6061 20.0971 26.8517 20.0971C26.6794 20.0971 26.5471 20.1813 26.3633 20.1868C26.2284 20.1909 25.8111 20.1858 25.7203 20.279C25.577 20.426 25.305 20.4242 25.1221 20.4658C24.8764 20.5216 24.6669 20.6987 24.4275 20.7696C24.3037 20.8063 24.2302 20.8817 24.1408 20.9788C24.0326 21.0963 23.9304 21.1099 23.8137 21.198C23.6411 21.3282 23.5027 21.5128 23.3207 21.6364C22.9814 21.867 22.6105 22.1413 22.3103 22.4334C22.0845 22.6531 21.746 22.8118 21.5553 23.0561C21.0973 23.6426 20.6319 24.2655 20.2423 24.9091C19.8129 25.6187 19.4863 26.4236 19.0078 27.0885C18.8444 27.3156 18.6276 27.4466 18.4679 27.6887C18.3303 27.8973 18.1433 28.1145 18.087 28.3762C18.0134 28.7183 17.8732 29.0406 17.7352 29.3575C17.6218 29.6181 17.4873 30.0273 17.4731 30.3189C17.456 30.6706 17.1565 30.9324 17.1102 31.2803C17.062 31.6418 16.8644 31.9563 16.7472 32.2965C16.6227 32.658 16.6853 33.0571 16.624 33.4323C16.5942 33.6143 16.6328 33.8692 16.5769 34.04C16.4464 34.4389 16.6203 34.681 16.7875 35.0064C16.8499 35.1277 17.0011 35.2118 17.0676 35.3227C17.1658 35.4864 17.4376 35.7363 17.6031 35.8133C17.7585 35.8857 17.9084 35.948 18.0579 36.0375C18.2252 36.1377 18.408 36.1862 18.5709 36.2916C18.6742 36.3583 18.7295 36.3581 18.842 36.3737C18.9301 36.386 18.9832 36.4828 19.0661 36.5033C19.1832 36.5322 19.2329 36.5872 19.3282 36.6403" stroke="#500A0A" stroke-width="2" stroke-linecap="round" stroke-linejoin="round"/>
<path d="M19.3687 36.6403C19.9381 36.6403 20.5499 36.6501 21.1185 36.7076C21.5686 36.7531 22.0083 36.8764 22.4605 36.9068C22.72 36.9243 22.9845 36.9093 23.2447 36.9093C23.9192 36.9093 24.6017 36.8775 25.2745 36.9317C25.5908 36.9572 25.8804 37.0456 26.1887 37.0837C26.4046 37.1103 26.6279 37.0893 26.8384 37.1634C27.012 37.2244 27.1251 37.268 27.3089 37.268C28.571 37.268 29.8332 37.268 31.0953 37.268C31.6954 37.268 32.2601 37.5145 32.8563 37.537C33.9432 37.5779 35.0291 37.5818 36.1184 37.5818C37.0132 37.5818 37.899 37.5207 38.7846 37.38C39.4533 37.2739 40.1813 37.3576 40.8593 37.3576C41.3136 37.3576 41.7585 37.268 42.2148 37.268C42.9653 37.268 43.7159 37.268 44.4664 37.268C45.0378 37.268 45.5824 37.0886 46.1468 37.0886C46.5544 37.0886 46.9398 37.0187 47.3432 36.9641C47.74 36.9105 48.1585 36.9612 48.5486 36.8744C48.9101 36.7941 49.2361 36.5105 49.4941 36.2368C49.6264 36.0964 49.7714 35.9362 49.9197 35.8234C50.0622 35.7151 50.1037 35.4246 50.22 35.2953" stroke="#500A0A" stroke-width="2" stroke-linecap="round" stroke-linejoin="round"/>
<path d="M50.7846 32.9192C50.518 33.2156 50.341 33.4998 50.341 33.9155C50.341 34.1262 50.2603 34.3421 50.2603 34.5581C50.2603 35.0262 50.2158 35.5563 50.3096 36.0126C50.5114 36.994 51.1002 37.6231 51.7345 38.2791C52.1074 38.6647 52.6301 38.8443 53.0251 39.1857C53.1182 39.2663 53.1702 39.4199 53.3051 39.4199C53.3761 39.4199 53.4699 39.4673 53.5269 39.5095" stroke="#500A0A" stroke-width="2" stroke-linecap="round" stroke-linejoin="round"/>
<path d="M36.3065 18.8419C36.7568 18.8335 37.2293 18.661 37.6553 18.5031C38.0319 18.3636 38.4404 18.5094 38.8271 18.416C39.1618 18.3351 39.5552 18.3936 39.8958 18.3936C40.076 18.3936 40.2387 18.3039 40.429 18.3039C40.6015 18.3039 40.774 18.3039 40.9465 18.3039C41.8737 18.3039 42.7916 18.3487 43.7202 18.3487C44.3655 18.3487 45.0108 18.3487 45.656 18.3487C45.8163 18.3487 45.9984 18.3157 46.1467 18.3936C46.3786 18.5153 46.6592 18.5811 46.8704 18.7298C47.1473 18.9248 47.3799 19.1552 47.6769 19.3301C47.9618 19.4977 48.2747 19.6323 48.544 19.8282C49.1315 20.2557 49.7314 20.6532 50.314 21.0984C50.5542 21.282 50.8217 21.424 51.0668 21.5991C51.228 21.7143 51.35 22.0059 51.5507 22.025C51.6384 22.0333 51.8829 22.1773 51.9697 22.2292C52.1516 22.3381 52.2451 22.5361 52.4066 22.6526C52.6664 22.8401 52.8882 23.0868 53.1459 23.2778C53.4469 23.5008 53.7872 23.7396 54.0511 24.0175C54.3472 24.3293 54.6936 24.5731 54.9898 24.8893C55.0937 25.0001 55.139 25.1557 55.2273 25.2803C55.3369 25.4349 55.4653 25.5746 55.5925 25.7112C56.2507 26.4176 56.9401 27.0613 57.4835 27.893C57.7359 28.2794 58.0275 28.6305 58.2676 29.0188C58.3723 29.188 58.5234 29.4038 58.5679 29.6016" stroke="#500A0A" stroke-width="2" stroke-linecap="round" stroke-linejoin="round"/>
<path d="M38.0811 18.528C38.0811 17.9315 38.3031 17.465 38.6725 17.0386C38.9434 16.7259 39.2387 16.2402 39.6449 16.117C40.1466 15.9649 40.4833 15.5853 40.9265 15.32C41.4354 15.0153 41.9502 14.8907 42.5172 14.7646C42.7606 14.7105 43.0187 14.6452 43.2633 14.6251C43.4373 14.6108 43.7493 14.643 43.9108 14.5778C44.1525 14.4801 44.4302 14.4483 44.6949 14.4483C45.1081 14.4483 45.5193 14.4034 45.9362 14.4034C46.0123 14.4034 46.0885 14.4034 46.1647 14.4034C46.2448 14.4034 46.2866 14.3186 46.3663 14.3138C46.5739 14.3013 46.7857 14.3138 46.9937 14.3138C47.3163 14.3138 47.6389 14.3138 47.9615 14.3138C48.0612 14.3138 48.2319 14.2801 48.3223 14.3387C48.4071 14.3937 48.477 14.4931 48.5866 14.4931C48.7621 14.4931 49.0785 14.7985 48.8286 14.9838C48.6367 15.126 48.4432 15.3821 48.3335 15.6139C48.0837 16.1415 47.9326 16.7512 47.7151 17.2951C47.687 17.3654 47.613 17.3677 47.5986 17.452C47.5814 17.5521 47.5051 17.6413 47.4574 17.726C47.4045 17.8201 47.3163 18.0741 47.3163 18.1918C47.3163 18.4779 47.1146 18.7282 47.1146 18.9763" stroke="#500A0A" stroke-width="2" stroke-linecap="round" stroke-linejoin="round"/>
<path d="M48.4052 19.8282C48.7893 19.7608 49.1435 19.6236 49.5119 19.5144C49.6491 19.4737 49.8087 19.4503 49.9354 19.3799C50.1335 19.2698 50.3661 19.3869 50.5694 19.2703C50.8658 19.1002 51.2373 19.0499 51.5597 18.9415C51.958 18.8076 52.3627 18.6305 52.7674 18.5305C53.3388 18.3894 53.8952 18.3935 54.4768 18.3935C55.3773 18.3935 56.393 18.1712 57.2685 18.4732C57.6036 18.5889 57.954 18.7625 58.3036 18.7995C58.4311 18.813 58.4966 18.9764 58.6307 18.9764C58.7972 18.9764 59.0036 19.1289 59.1639 19.1906C59.2722 19.2323 59.3877 19.328 59.4955 19.335C59.6344 19.3441 59.2797 19.6183 59.2513 19.6538C59.0397 19.9184 58.8506 20.2404 58.5679 20.411C58.1756 20.6478 57.8239 20.9351 57.4231 21.1482C57.2963 21.2157 57.2083 21.3701 57.0803 21.4571C56.9744 21.529 56.8847 21.5145 56.7935 21.6215C56.6493 21.7907 56.4691 21.9183 56.3185 22.0798C56.1925 22.2148 56.0318 22.3678 55.8861 22.4758C55.6717 22.6347 55.3415 22.9809 55.2207 23.2354C55.0929 23.5046 54.9692 23.7759 54.8331 24.0449C54.7544 24.2005 54.6964 24.2385 54.6964 24.4235C54.6964 24.5689 54.5998 24.5793 54.5754 24.7149" stroke="#500A0A" stroke-width="2" stroke-linecap="round" stroke-linejoin="round"/>
<path d="M55.6643 25.8806C56.1078 25.8054 56.5592 25.5862 56.9705 25.3874C57.1605 25.2956 57.3414 25.1852 57.5396 25.1184C57.7679 25.0415 58.0226 25.0452 58.2364 24.9192C58.7289 24.6288 59.3498 24.5356 59.9055 24.5356C60.4544 24.5356 61.0082 24.513 61.5568 24.5356C61.7374 24.543 61.8844 24.6214 62.0564 24.6651C62.2233 24.7075 62.3977 24.696 62.565 24.7349C62.9295 24.8195 63.2592 25.0336 63.6337 25.0786C63.8539 25.105 64.0886 25.2185 64.2969 25.3003C64.5114 25.3844 64.7659 25.3923 64.9623 25.5219C65.1292 25.6321 64.6928 25.7649 64.6352 25.781C64.5274 25.8109 64.4416 25.8914 64.3372 25.9204C64.1279 25.9786 63.8679 26.0415 63.6718 26.1396C63.4034 26.2739 63.1578 26.407 62.966 26.6602C62.8372 26.8302 62.6418 26.9386 62.5022 27.1085C62.4314 27.1947 62.3254 27.3354 62.2379 27.3949C62.05 27.5226 61.9117 27.7885 61.6934 27.8532C61.5667 27.8908 61.2118 28.1487 61.149 28.2766C61.0314 28.5162 60.7532 28.5716 60.6202 28.7723C60.5129 28.9342 60.3647 29.0705 60.2438 29.2206C60.1467 29.3412 60.0673 29.5183 59.9302 29.5917C59.8325 29.644 59.7279 29.775 59.6479 29.8607C59.5622 29.9524 59.5454 30.0577 59.4552 30.1222C59.303 30.231 59.164 30.3405 59.0116 30.4535" stroke="#500A0A" stroke-width="2" stroke-linecap="round" stroke-linejoin="round"/>
<path d="M58.4871 29.512C58.5303 29.7584 58.6315 30.1661 58.85 30.309C58.9829 30.3959 59.213 30.7952 59.213 30.9516C59.213 31.0411 59.245 31.1011 59.2533 31.1807C59.264 31.2841 59.3593 31.3126 59.372 31.3974C59.3976 31.5676 59.5187 31.7737 59.6006 31.9354C59.6953 32.1226 59.7284 32.311 59.8 32.5157C59.868 32.7101 60.0021 32.8635 60.0688 33.0637C60.2217 33.5224 60.4079 33.9697 60.6558 34.3788C61.0894 35.0939 61.2208 35.914 61.5722 36.6652C61.8004 37.1531 62.0263 37.6178 62.2511 38.0949C62.4001 38.4111 62.5199 38.8811 62.5199 39.2406" stroke="#500A0A" stroke-width="2" stroke-linecap="round" stroke-linejoin="round"/>
<path d="M62.6008 39.2405C62.4839 39.9389 62.5605 40.7116 62.5605 41.4174C62.5605 41.7979 62.6178 42.2516 62.5425 42.6229C62.4473 43.0927 62.5405 43.6119 62.3991 44.0675C62.3014 44.3825 62.3698 44.7615 62.3162 45.0887C62.2855 45.2766 62.1975 45.4817 62.1975 45.674C62.1975 45.9297 62.087 46.2082 61.9959 46.4411C61.9349 46.597 61.9342 46.7179 61.857 46.8695C61.8073 46.9669 61.8065 47.0706 61.7696 47.1709C61.7232 47.2969 61.6306 47.4032 61.5791 47.5295C61.374 48.0328 61.161 48.539 60.9384 49.0339C60.8291 49.2768 60.711 49.5168 60.5799 49.7462C60.4594 49.957 60.2855 50.139 60.1811 50.3589C60.0488 50.6375 59.9283 50.925 59.7778 51.1908C59.5175 51.6504 59.2001 52.0511 58.9085 52.486C58.6399 52.8865 58.3265 53.2393 58.0459 53.6292C57.9014 53.8301 57.7282 54.0101 57.6068 54.2295C57.5072 54.4093 57.4104 54.5997 57.2752 54.75C56.954 55.1071 56.5543 55.4218 56.1886 55.7189C56.0168 55.8584 55.8768 56.0418 55.7046 56.1822C55.6509 56.2259 55.3228 56.3904 55.382 56.4561" stroke="#500A0A" stroke-width="2" stroke-linecap="round" stroke-linejoin="round"/>
<path d="M55.3417 56.4562C54.6577 57.977 53.3616 58.7437 52.1423 59.6741C51.507 60.159 50.8203 60.5134 50.1595 60.9444C49.4554 61.4036 48.7203 61.7658 47.9392 62.0353C46.5702 62.5076 45.1023 62.8033 43.6599 62.8224C41.5728 62.85 39.4894 62.9569 37.4 62.9569C36.1469 62.9569 34.8937 62.9569 33.6405 62.9569C31.8961 62.9569 30.1223 62.8512 28.3844 62.9917C27.8481 63.0351 27.2962 62.8957 26.7578 62.8697C26.4144 62.8531 26.0854 62.7775 25.7406 62.7775" stroke="#500A0A" stroke-width="2" stroke-linecap="round" stroke-linejoin="round"/>
<path d="M25.7404 62.8223C25.204 62.8223 24.6377 62.7266 24.1496 62.4661C23.9573 62.3635 23.7292 62.359 23.529 62.2644C23.2595 62.137 22.951 62.0902 22.6933 61.9431C22.4025 61.7771 22.1128 61.6346 21.8128 61.4948C21.6026 61.3968 21.418 61.236 21.2012 61.1411C20.8454 60.9853 20.499 60.7855 20.1526 60.6031C19.9525 60.4977 19.722 60.451 19.5119 60.3765C19.3639 60.324 19.2411 60.2324 19.1019 60.1598C18.9769 60.0946 18.8226 60.075 18.7143 59.9755C18.5868 59.8584 18.4375 59.7889 18.2841 59.709C18.1316 59.6295 18.0261 59.4853 17.8786 59.3951C17.4592 59.1388 17.0735 58.8059 16.6463 58.5608C16.3789 58.4073 16.1981 58.129 15.963 57.9256C15.711 57.7078 15.4252 57.4622 15.2281 57.1884C15.0698 56.9684 14.8494 56.8159 14.65 56.6454C14.4581 56.4813 14.3511 56.2454 14.184 56.0526C13.9816 55.8191 13.8688 55.5243 13.6642 55.2905C13.4788 55.0787 13.4401 54.788 13.3506 54.5134C13.2353 54.1598 13.1982 53.7582 13.1982 53.3826C13.1982 53.0868 13.1579 52.8034 13.1579 52.5109C13.1579 52.3458 13.2005 52.1112 13.1176 51.9729" stroke="#500A0A" stroke-width="2" stroke-linecap="round" stroke-linejoin="round"/>
<path d="M13.1983 52.1523C13.1592 51.9157 13.0773 51.7801 13.0773 51.5421C13.0773 51.2374 13.037 50.9507 13.037 50.6554C13.037 50.2992 13.037 49.9431 13.037 49.5869C13.037 49.2401 12.9509 48.7312 13.0415 48.4038C13.1539 47.9977 13.3596 47.6416 13.3596 47.1958C13.3596 46.8259 13.4428 46.5653 13.5523 46.2245C13.5979 46.0824 13.705 45.9582 13.7786 45.831C13.8229 45.7544 13.8122 45.6018 13.866 45.542C14.0388 45.3499 14.1776 45.1214 14.3768 44.9443C14.4844 44.8485 14.7439 44.6205 14.8921 44.6205" stroke="#500A0A" stroke-width="2" stroke-linecap="round" stroke-linejoin="round"/>
<path d="M17.5134 35.9679C17.235 35.9679 16.9537 35.956 16.6754 35.9679C16.4834 35.9761 16.3225 36.1823 16.1646 36.192C15.7034 36.2205 15.2953 36.791 15.2953 37.2879C15.2953 37.6552 15.3182 37.8999 15.4566 38.2444C15.6144 38.6369 15.8717 39.0447 16.1736 39.3104C16.6621 39.7403 17.2244 39.9697 17.8315 40.1173C19.0394 40.4111 20.2935 40.4959 21.526 40.4959C23.8307 40.4959 26.1347 40.5408 28.4401 40.5408C30.8208 40.5408 33.2011 40.4959 35.5805 40.4959C38.0584 40.4959 40.5328 40.4511 43.0099 40.4511C43.6783 40.4511 44.3468 40.4511 45.0152 40.4511C45.6563 40.4511 46.3237 40.5121 46.9621 40.4461C47.0803 40.4339 47.1626 40.349 47.2758 40.3266C47.4097 40.3 47.555 40.3166 47.6903 40.3166C47.8613 40.3166 48.0323 40.3166 48.2034 40.3166" stroke="#500A0A" stroke-width="2" stroke-linecap="round" stroke-linejoin="round"/>
<path d="M16.5858 39.4199C16.1791 39.5602 15.6885 39.8293 15.3535 40.1273C15.2642 40.2067 15.1337 40.3778 15.0712 40.4859C15.0331 40.5518 15.0008 40.6453 14.9816 40.7201C14.9493 40.8456 14.8694 40.8661 14.8136 40.9716C14.6103 41.3557 14.4484 41.7437 14.4484 42.1995C14.4484 42.6006 14.4014 43.0207 14.3319 43.4075C14.2557 43.8309 14.5278 44.2775 14.641 44.6553C14.7202 44.9194 14.958 45.0299 15.1541 45.1809C15.6499 45.5624 16.1502 45.9841 16.7202 46.2145C17.313 46.4541 17.9189 46.6247 18.5305 46.7923C18.9294 46.9017 19.3196 47.0398 19.7224 47.1311C20.0526 47.2058 20.3486 47.3748 20.6724 47.4698C21.4082 47.6857 22.1527 47.7949 22.8905 47.9879C23.6356 48.1828 24.3332 48.3788 25.0996 48.4312C25.3203 48.4463 25.5198 48.5405 25.7381 48.5607C25.9286 48.5784 26.1063 48.5735 26.296 48.6105C26.9178 48.7318 27.5586 48.7165 28.1869 48.755C29.8184 48.8551 31.4482 48.8347 33.0824 48.8347C33.5706 48.8347 34.0607 48.8589 34.5454 48.7899C35.2005 48.6965 35.8617 48.7972 36.517 48.7251C37.067 48.6646 37.6064 48.5215 38.1526 48.4312C38.672 48.3453 39.2005 48.3166 39.7164 48.207C40.5055 48.0395 41.2771 47.9347 42.0532 47.6865C42.7241 47.472 43.3933 47.2343 44.0607 47.009C44.5525 46.843 44.9946 46.5022 45.4924 46.3689C45.6914 46.3156 45.8918 46.2593 46.0839 46.1796C46.224 46.1215 46.3659 46.0172 46.5185 46.0103C46.8864 45.9936 47.161 45.8268 47.5133 45.7213C47.7926 45.6377 48.0233 45.4447 48.2997 45.3378C48.403 45.2978 48.5593 45.2683 48.647 45.2033" stroke="#500A0A" stroke-width="2" stroke-linecap="round" stroke-linejoin="round"/>
<path d="M17.5133 51.9729C17.8549 51.5708 18.3152 51.1322 18.8441 51.0788C19.0802 51.0549 19.1902 50.9291 19.3998 50.8272C19.5398 50.7591 19.699 50.7398 19.8367 50.6678C20.0097 50.5773 20.1837 50.5312 20.3587 50.4486C20.53 50.3678 20.7609 50.2489 20.9412 50.2145C21.3865 50.1296 21.8041 49.8834 22.2631 49.8658C22.3993 49.8606 22.5136 49.7876 22.635 49.7213C22.8167 49.6223 22.9901 49.5989 23.1772 49.5296C23.3068 49.4815 23.4625 49.4943 23.5984 49.4623C23.8694 49.3985 24.1071 49.2232 24.3692 49.156C24.6365 49.0874 24.9202 49.1036 25.1936 49.1036C25.339 49.1036 25.4525 49.014 25.5969 49.014C25.7568 49.014 25.9166 49.014 26.0764 49.014C26.6565 49.014 27.2217 48.9357 27.8016 49.0364C28.3437 49.1306 28.8433 49.336 29.3789 49.4723C29.7891 49.5766 30.2169 49.5978 30.6156 49.7537C31.2397 49.9978 31.9099 50.1507 32.5469 50.359C32.7895 50.4383 33.0499 50.4872 33.2862 50.5881C33.522 50.6888 33.7399 50.8401 33.9718 50.9517C34.561 51.2355 35.1771 51.4248 35.753 51.7413C36.3067 52.0456 36.9013 52.2393 37.4042 52.6504C37.6614 52.8606 37.9408 53.0539 38.1794 53.288C38.4743 53.5772 38.8067 53.7873 39.0644 54.1224C39.2305 54.3383 39.3975 54.565 39.582 54.7625C39.8479 55.0471 40.1673 55.2506 40.4199 55.5595" stroke="#500A0A" stroke-width="2" stroke-linecap="round" stroke-linejoin="round"/>
<path d="M22.998 26.6875C23.192 26.6424 23.4021 26.5938 23.5783 26.4883C23.6577 26.4408 23.7347 26.3468 23.8248 26.3314C24.0528 26.2924 24.2678 26.2074 24.4992 26.1595C24.6268 26.1331 24.7619 26.1268 24.8912 26.1047C25.0149 26.0836 25.136 25.984 25.243 25.9727C25.5476 25.9405 25.8509 25.9348 26.1526 25.8706C26.6209 25.7709 27.0889 25.7909 27.5641 25.7909C27.7354 25.7909 27.9061 25.8805 28.0794 25.8805C28.1628 25.8805 28.4125 25.9485 28.4424 26.015" stroke="#500A0A" stroke-width="2" stroke-linecap="round" stroke-linejoin="round"/>
<path d="M26.2244 26.3737C26.0357 26.4936 25.8971 26.5579 25.7584 26.69C25.6679 26.7762 25.5858 27.0934 25.6845 27.2031C25.7945 27.3254 26.0109 27.3491 26.1438 27.4148C26.2834 27.4838 26.5153 27.4233 26.6591 27.37C26.9845 27.2494 26.9934 26.9112 26.9078 26.578C26.8943 26.5254 26.6426 26.4558 26.5874 26.4285C26.4852 26.378 26.2936 26.4186 26.1841 26.4186" stroke="#500A0A" stroke-width="2" stroke-linecap="round" stroke-linejoin="round"/>
<path d="M34.2094 26.0599C34.0239 26.0206 33.6976 25.9315 33.5418 26.1047C33.4886 26.1638 33.3597 26.441 33.4656 26.5082C33.5267 26.547 33.5518 26.6322 33.6045 26.6875C33.6726 26.7591 33.7686 26.7903 33.8465 26.8445C33.9619 26.9247 34.2343 26.8669 34.3707 26.8669C34.725 26.8669 34.9567 26.6475 34.8569 26.2591C34.8174 26.1054 34.318 26.1047 34.1691 26.1047" stroke="#500A0A" stroke-width="2" stroke-linecap="round" stroke-linejoin="round"/>
<path d="M42.6382 25.8358C42.4379 25.8358 42.279 25.8188 42.105 25.9055C42.0225 25.9466 41.8745 25.7828 41.8003 25.7461C41.6715 25.6825 41.6137 25.6311 41.518 25.5469C41.3982 25.4414 41.2314 25.005 41.1953 24.8295C41.1241 24.483 41.1057 24.1461 41.1057 23.7835C41.1057 23.389 41.2429 23.0256 41.3387 22.6527C41.4213 22.3316 41.6869 22.1645 41.854 21.9005C42.0454 21.5982 42.3199 21.4251 42.5889 21.2181C42.8223 21.0384 43.1099 20.8362 43.391 20.7598C43.6722 20.6834 43.9303 20.4804 44.211 20.4111C44.4685 20.3475 44.7307 20.3214 44.9952 20.3214C45.1416 20.3214 44.9616 20.972 44.9168 21.0661C44.8331 21.2419 44.7978 21.458 44.7196 21.6415C44.6872 21.7174 44.664 21.8316 44.6569 21.9154C44.6452 22.0511 44.5805 22.0891 44.5381 22.2069C44.4304 22.5062 44.4433 22.8356 44.3365 23.1409C44.2672 23.3389 44.1707 23.6746 44.1707 23.8856C44.1707 24.145 43.9692 24.3443 43.9265 24.5581C43.8788 24.7967 43.618 25.1169 43.503 25.3177C43.4684 25.3782 43.3602 25.4646 43.3036 25.4995C43.2393 25.5392 43.1058 25.5451 43.0639 25.5917C42.9532 25.7147 42.7604 25.8652 42.5979 25.9254" stroke="#500A0A" stroke-width="2" stroke-linecap="round" stroke-linejoin="round"/>
<path d="M21.9093 22.6526C21.7494 22.4038 21.5749 21.9414 21.3447 21.7908C21.2973 21.7598 21.1079 21.446 21.1027 21.3973C21.0902 21.2794 20.8724 21.1482 20.8294 21.0287C20.7644 20.8482 20.652 20.7571 20.556 20.6003C20.5346 20.5652 20.4676 20.5128 20.4597 20.4732C20.4339 20.3444 20.3948 20.4067 20.3365 20.3113C20.2585 20.1839 20.2311 19.9434 20.0945 19.863C20.0028 19.8091 19.8827 19.6457 19.7943 19.7385C19.1672 20.3969 19.3282 21.5908 19.3282 22.5081C19.3282 23.3701 19.8631 24.1178 20.2961 24.7597" stroke="#500A0A" stroke-width="2" stroke-linecap="round" stroke-linejoin="round"/>
<path d="M18.5216 36.3713C18.5216 35.9503 18.5799 35.5718 18.6919 35.1708C18.8052 34.7649 18.8499 34.3327 18.9652 33.9255C19.017 33.7428 19.1018 33.62 19.1669 33.4472C19.1801 33.412 19.2794 33.0832 19.3192 33.1982C19.367 33.3363 19.3771 33.4167 19.4492 33.5369C19.5337 33.678 19.6209 33.8716 19.6508 34.0375C19.6966 34.2922 19.7677 34.6084 19.8905 34.8246C20.0162 35.0459 20.0304 35.3578 20.1572 35.5793C20.2599 35.7587 20.4351 35.9766 20.4596 36.1945C20.4705 36.2914 20.6998 36.7002 20.78 36.73" stroke="#500A0A" stroke-width="2" stroke-linecap="round" stroke-linejoin="round"/>
<path d="M21.8689 36.999C22.0457 37.4795 22.334 37.8387 22.5634 38.2792C22.6758 38.4949 22.8494 38.5447 22.8771 38.8371C22.9124 39.2101 23.2051 38.856 23.3252 38.7225C23.5764 38.4432 23.9072 38.1935 24.208 37.9853C24.3642 37.8771 24.5309 37.8421 24.6695 37.6964C24.8009 37.5581 24.9211 37.5009 25.0862 37.4373C25.1568 37.4101 25.2329 37.3578 25.2879 37.3028C25.3446 37.2461 25.4266 37.273 25.4985 37.2331C25.6128 37.1695 25.6296 37.0606 25.7404 36.999" stroke="#500A0A" stroke-width="2" stroke-linecap="round" stroke-linejoin="round"/>
<path d="M38.2019 37.4473C38.3561 37.6631 38.5371 37.8677 38.706 38.07C38.7891 38.1695 38.8962 38.1915 38.9681 38.3215C39.111 38.5795 39.3633 38.67 39.5305 38.8869C39.6575 39.0517 39.6923 39.2904 39.8755 39.0413C40.0135 38.8539 40.0653 38.6135 40.1802 38.4112C40.3126 38.1782 40.3956 38.0015 40.5813 37.806C40.6574 37.7258 40.8797 37.5887 40.9846 37.5818C41.1315 37.5722 41.2628 37.537 41.4192 37.537C41.6367 37.537 41.71 37.4399 41.9121 37.4025" stroke="#500A0A" stroke-width="2" stroke-linecap="round" stroke-linejoin="round"/>
<path d="M43.4448 37.3576C43.3496 36.7887 43.617 36.203 43.8907 35.7213C44.0264 35.4824 44.0516 35.2009 44.1887 34.9616C44.3741 34.6377 44.39 35.1233 44.574 35.2256C44.6656 35.2765 44.7208 35.3877 44.7757 35.4846C44.8307 35.5818 44.919 35.7211 44.9594 35.8234C45.0039 35.9361 45.0721 35.9794 45.1073 36.0924C45.1373 36.1888 45.1548 36.2509 45.2193 36.3265C45.3267 36.4526 45.3623 36.6644 45.5105 36.7399C45.5896 36.7803 45.7594 37.0519 45.7839 37.1335" stroke="#500A0A" stroke-width="2" stroke-linecap="round" stroke-linejoin="round"/>
<path d="M31.5969 26.1671C31.7239 26.0301 31.8887 25.8821 32.0585 25.8134C32.1746 25.7665 32.2703 25.6387 32.3945 25.6291C32.7043 25.6054 32.9905 25.3957 33.2997 25.3601C33.546 25.3318 33.7708 25.2806 34.0256 25.2705C34.2706 25.2607 34.5215 25.2256 34.7739 25.2256C35.3203 25.2256 35.9427 25.1441 36.4767 25.2904C36.7211 25.3574 36.9698 25.4946 37.225 25.4946C37.4131 25.4946 37.6607 25.586 37.7672 25.7636" stroke="#500A0A" stroke-width="2" stroke-linecap="round" stroke-linejoin="round"/>
<path d="M31.7581 32.5333C31.4934 32.8367 31.6073 32.892 31.897 32.892C31.9516 32.892 32.0683 32.9174 32.1121 32.882C32.1715 32.8339 32.1341 32.773 32.1703 32.7226C32.3758 32.4371 31.6172 32.4885 31.5161 32.4885" stroke="#500A0A" stroke-width="2" stroke-linecap="round" stroke-linejoin="round"/>
<path d="M26.1802 32.4587C25.9155 32.7621 26.0294 32.8174 26.3191 32.8174C26.3737 32.8174 26.4904 32.8428 26.5342 32.8074C26.5937 32.7593 26.5562 32.6984 26.5925 32.648C26.7979 32.3625 26.0393 32.4139 25.9382 32.4139" stroke="#500A0A" stroke-width="2" stroke-linecap="round" stroke-linejoin="round"/>
</g>
<defs>
<filter id="filter0_d" x="0" y="0" width="80" height="80" filterUnits="userSpaceOnUse" color-interpolation-filters="sRGB">
<feFlood flood-opacity="0" result="BackgroundImageFix"/>
<feColorMatrix in="SourceAlpha" type="matrix" values="0 0 0 0 0 0 0 0 0 0 0 0 0 0 0 0 0 0 127 0"/>
<feOffset dx="2" dy="1"/>
<feGaussianBlur stdDeviation="2.5"/>
<feColorMatrix type="matrix" values="0 0 0 0 0 0 0 0 0 0 0 0 0 0 0 0 0 0 1 0"/>
<feBlend mode="normal" in2="BackgroundImageFix" result="effect1_dropShadow"/>
<feBlend mode="normal" in="SourceGraphic" in2="effect1_dropShadow" result="shape"/>
</filter>
<filter id="filter1_d" x="8.99976" y="9" width="64.0009" height="61" filterUnits="userSpaceOnUse" color-interpolation-filters="sRGB">
<feFlood flood-opacity="0" result="BackgroundImageFix"/>
<feColorMatrix in="SourceAlpha" type="matrix" values="0 0 0 0 0 0 0 0 0 0 0 0 0 0 0 0 0 0 127 0"/>
<feOffset dx="2" dy="1"/>
<feGaussianBlur stdDeviation="2.5"/>
<feColorMatrix type="matrix" values="0 0 0 0 0 0 0 0 0 0 0 0 0 0 0 0 0 0 1 0"/>
<feBlend mode="normal" in2="BackgroundImageFix" result="effect1_dropShadow"/>
<feBlend mode="normal" in="SourceGraphic" in2="effect1_dropShadow" result="shape"/>
</filter>
</defs>
</svg>
